<?xml version="1.0" encoding="UTF-8"?>
<svg id="Layer_2" data-name="Layer 2" xmlns="http://www.w3.org/2000/svg" viewBox="0 0 1035.38 230.93">
  <defs>
    <style>
      .cls-1 {
        fill: #cc092f;
      }
    </style>
  </defs>
  <g id="PROPORÇ_AO_E_REGRAS" data-name="PROPORÇ˜AO E REGRAS">
    <path class="cls-1" d="M333.77,125.46c-8.04,0-15.86,1.79-20.78,4.25v-49.6c-7.82,2.9-16.09,6.93-23.01,12.51-3.58,2.9-4.69,5.81-4.69,10.06v122.45c7.37,3.13,22.34,5.81,36.64,5.81,36.2,0,56.98-22.12,56.98-54.07s-14.75-51.39-45.14-51.39ZM323.49,208.36c-2.9,0-7.37,0-10.5-1.12v-55.64c3.8-2.01,9.16-3.13,16.09-3.13,13.85,0,21.23,9.61,21.23,27.71,0,18.99-8.71,32.18-26.81,32.18ZM449.51,126.36c-13.18,0-20.78,5.14-27.93,14.3-.67-4.69-1.56-8.49-3.13-13.18-2.68-.89-7.37-1.12-11.4-1.12-3.8,0-8.71.45-11.17,1.12v101.22c3.35.89,8.94,1.12,13.85,1.12s10.95-.45,13.85-1.12v-49.38c0-19.66,10.28-30.16,24.13-30.16,2.46,0,6.7,0,9.16.45,1.56-6.48,1.79-15.86.45-22.34-1.56-.45-5.59-.89-7.82-.89ZM99.6,175.91v51.56c0,1.29,1.05,2.34,2.34,2.34h14.34v-66.2l-14.32,8.24c-1.46.83-2.36,2.14-2.36,4.06ZM114.13,49.18c-14.04,0-29.38,1.29-44.54,3.87,15.35-19.7,39.67-32.41,66.81-32.41,20.02,0,40.05,7.55,53.52,18.78,2.43,2.03,4.3,2.21,6.18.37,1.87-1.84,1.68-3.68-.37-6.08C178.14,13.27,152.31-.54,121.81.02,81.95.75,48.07,25.98,35.16,60.96c-11.79,3.68-22.64,8.1-32.19,13.44-2.62,1.47-3.56,3.31-2.62,5.52.94,2.03,2.81,2.76,5.43,2.03,8.23-2.39,16.66-4.42,25.45-6.26-.94,4.6-1.5,9.39-1.5,14.36-.75,32.22,16.47,62.79,43.04,79.54,2.62,1.66,4.87,1.66,6.36-.37,1.5-2.03,1.31-3.87-.94-5.89-16.84-15.1-26.2-37.56-26.2-59.84,0-11.23,2.25-22.1,6.55-31.85,8.8-.74,18.34-1.29,28.82-1.29,68.12,0,125.57,22.46,125.57,51.92,0,14.91-18.9,29.83-41.36,39.77-5.43,2.39-5.99,4.05-5.24,6.44.75,2.21,3.18,2.95,5.99,2.03,39.3-12.89,69.05-34.06,69.05-59.66,0-34.8-56.14-61.68-127.25-61.68ZM141.63,149.02l-18.95,10.91v69.85l20.36.03c2,0,3.63-1.62,3.63-3.62v-74.56c0-2.86-2.76-3.9-5.03-2.6ZM986.67,125.02c-31.06,0-48.49,21.23-48.49,53.18s18.32,52.73,48.49,52.73,48.71-20.78,48.71-52.73-17.43-53.18-48.71-53.18ZM986.67,208.59c-15.42,0-20.11-12.51-20.11-30.39s4.69-30.84,20.11-30.84,20.33,12.96,20.33,30.84c0,18.77-5.14,30.39-20.33,30.39ZM716.31,125.02c-29.94,0-48.26,20.11-48.26,53.63s19.44,52.29,52.73,52.29c11.4,0,23.69-2.01,31.51-5.81,1.56-6.48,1.56-14.97,0-21.45-10.28,2.9-18.99,4.69-28.6,4.69-15.42,0-26.14-5.81-28.38-22.12h63.01c.89-2.46,1.12-10.73,1.12-14.08,0-30.17-16.98-47.15-43.12-47.15ZM695.3,165.91c2.01-12.29,9.38-19.66,20.56-19.66,12.51,0,17.43,8.49,17.88,19.66h-38.43ZM909.14,208.14c-13.85,0-23.01-10.95-23.01-30.16s7.37-30.17,23.24-30.17c6.7,0,11.4,1.12,17.65,3.58,1.79-6.26,5.14-13.41,9.83-19.44-8.71-4.47-17.21-6.93-31.06-6.93-30.61,0-48.26,21.67-48.26,52.96s18.1,52.96,49.38,52.96c11.4,0,21.9-2.01,30.39-6.7-3.8-4.92-8.04-11.62-10.5-19.44-7.82,3.13-11.17,3.35-17.65,3.35ZM500.68,125.02c-10.95-.22-20.56,1.12-29.94,3.35-1.79,6.26-1.56,15.42,0,21.9,11.62-2.68,18.1-2.9,25.47-2.9,14.3,0,21.23,5.81,21.23,17.65v1.12c-4.25-.45-9.38-.89-12.96-.89-23.69,0-44.02,8.49-44.02,31.28,0,25.7,18.32,34.41,44.91,34.41,12.51,0,26.14-2.23,38.66-6.03v-57.87c0-27.71-14.97-41.34-43.35-42.01ZM517.44,208.14c-1.56.45-8.49,1.12-11.84,1.12-12.74,0-19.66-3.8-19.66-12.74s6.93-12.51,19.66-12.51c4.25,0,9.16.45,11.84.67v23.46ZM624.69,102.67v24.36c-4.92-1.34-10.05-1.56-14.52-1.56-30.61,0-51.39,20.56-51.39,53.4s20.33,52.06,52.06,52.06c14.52,0,28.82-2.01,41.56-6.26V80.1c-7.82,2.9-16.09,6.93-23.01,12.51-3.57,2.9-4.69,5.81-4.69,10.06ZM624.69,206.8c-4.69,1.34-8.04,1.56-11.84,1.56-18.32,0-25.47-12.07-25.47-29.49,0-19.44,7.15-31.28,25.25-31.28,5.36,0,8.71.67,12.07,1.56v57.65ZM822.89,168.59l-11.17-4.69c-6.48-2.68-10.28-4.92-10.28-9.16,0-6.48,5.81-7.82,13.41-7.82s15.42.89,26.14,4.25c1.34-7.37,1.34-14.3,0-20.78-6.7-3.58-19.22-5.36-30.17-5.36-21.45,0-37.76,11.62-37.76,29.05,0,15.64,6.7,23.46,25.47,31.06l8.71,3.57c8.27,3.35,10.73,5.36,10.73,10.73,0,8.04-8.04,9.38-14.75,9.38-11.17,0-19.66-2.23-30.39-6.03-1.79,6.48-1.79,14.97,0,21.67,9.16,4.92,21.67,6.48,34.86,6.48,21.23,0,38.21-11.17,38.21-31.28,0-16.53-7.15-24.36-23.01-31.06Z"/>
  </g>
</svg>